<svg width="800" height="450" viewBox="0 0 800 450" xmlns="http://www.w3.org/2000/svg">
  <rect width="800" height="450" fill="#f5f5f5"/>
  <rect x="20" y="20" width="760" height="70" rx="5" fill="#ffffff" stroke="#e0e0e0" stroke-width="1"/>
  <text x="400" y="65" font-family="Arial" font-size="24" text-anchor="middle" fill="#333333">CV Builder</text>
  
  <rect x="20" y="110" width="375" height="320" rx="5" fill="#ffffff" stroke="#e0e0e0" stroke-width="1"/>
  <rect x="405" y="110" width="375" height="320" rx="5" fill="#ffffff" stroke="#e0e0e0" stroke-width="1"/>
  
  <rect x="40" y="130" width="335" height="50" rx="3" fill="#f9f9f9"/>
  <rect x="40" y="190" width="335" height="50" rx="3" fill="#f9f9f9"/>
  <rect x="40" y="250" width="335" height="50" rx="3" fill="#f9f9f9"/>
  <rect x="40" y="310" width="335" height="50" rx="3" fill="#f9f9f9"/>
  <rect x="40" y="370" width="335" height="30" rx="3" fill="#4a6fff"/>
  
  <rect x="425" y="130" width="335" height="30" rx="0" fill="#f9f9f9"/>
  <rect x="425" y="170" width="335" height="2" rx="0" fill="#333333"/>
  <rect x="425" y="180" width="80" height="20" rx="0" fill="#f9f9f9"/>
  <rect x="425" y="210" width="335" height="2" rx="0" fill="#e0e0e0"/>
  <rect x="425" y="220" width="335" height="2" rx="0" fill="#e0e0e0"/>
  <rect x="425" y="240" width="335" height="2" rx="0" fill="#e0e0e0"/>
  
  <rect x="425" y="270" width="120" height="20" rx="0" fill="#f9f9f9"/>
  <rect x="425" y="300" width="335" height="2" rx="0" fill="#e0e0e0"/>
  <rect x="425" y="320" width="335" height="2" rx="0" fill="#e0e0e0"/>
  <rect x="425" y="340" width="335" height="2" rx="0" fill="#e0e0e0"/>

  <circle cx="760" cy="40" r="15" fill="#4a6fff"/>
  <circle cx="700" cy="400" r="20" fill="#4a6fff"/>
  
  <text x="700" y="405" font-family="Arial" font-size="10" text-anchor="middle" fill="#ffffff">PDF</text>
  
  <text x="400" y="440" font-family="Arial" font-size="12" text-anchor="middle" fill="#666666">Made with ❤️ by bit2swaz</text>
</svg> 